<svg width="1024" height="1024" viewBox="0 0 1024 1024" fill="none" xmlns="http://www.w3.org/2000/svg">
<g clip-path="url(#clip0_4083_2564)">
<path fill-rule="evenodd" clip-rule="evenodd" d="M474.071 373.753C474.483 365.041 474.059 356.568 472.8 348.333C472.377 347.062 471.529 346.215 470.258 345.791C431.073 344.734 391.673 344.098 352.058 343.885C391.881 343.037 431.706 343.037 471.529 343.885C472.588 344.944 473.648 346.004 474.706 347.062C475.75 356.187 475.539 365.083 474.071 373.753Z" fill="#FEFCF8"/>
<path fill-rule="evenodd" clip-rule="evenodd" d="M352.058 347.063C391.241 345.794 430.641 345.371 470.258 345.792C471.529 346.215 472.377 347.063 472.8 348.333C472.343 351.296 471.496 351.085 470.258 347.698C430.86 347.063 391.46 346.85 352.058 347.063Z" fill="#006011"/>
<path fill-rule="evenodd" clip-rule="evenodd" d="M352.058 347.063C391.461 346.85 430.861 347.063 470.258 347.698C471.496 351.085 472.344 351.296 472.8 348.333C474.06 356.568 474.483 365.042 474.071 373.753C472.377 374.601 471.106 375.872 470.258 377.566C457.125 377.566 443.991 377.566 430.858 377.566C430.858 425.863 430.858 474.159 430.858 522.456C430.435 522.456 430.01 522.456 429.587 522.456C429.164 329.269 428.739 329.269 428.316 522.456C417.334 522.389 406.743 522.389 396.542 522.456C395.272 474.375 394.849 426.079 395.271 377.566C396.33 423.529 396.965 469.708 397.177 516.101C398.025 469.499 398.025 422.897 397.177 376.295C382.014 374.606 366.973 374.606 352.058 376.295C351.14 375.764 350.505 374.917 350.152 373.753C349.304 365.279 349.304 356.807 350.152 348.333C350.638 347.627 351.274 347.204 352.058 347.063Z" fill="#2D803E"/>
<path fill-rule="evenodd" clip-rule="evenodd" d="M518.555 389.004C569.798 388.771 593.734 414.191 590.364 465.262C559.744 466.525 529.029 466.95 498.219 466.533C500.802 490.929 514.358 502.156 538.89 500.214C548.252 498.5 555.453 493.629 560.497 485.598C569.5 483.788 578.397 484 587.187 486.233C587.563 497.363 583.327 506.684 574.477 514.194C556.852 526.435 537.362 530.671 516.013 526.904C492.449 521.821 476.562 508.053 468.352 485.598C458.458 453.792 465.025 426.041 488.051 402.349C497.402 395.782 507.57 391.334 518.555 389.004Z" fill="#297E3B"/>
<path fill-rule="evenodd" clip-rule="evenodd" d="M557.955 441.114C538.511 443.636 518.6 444.484 498.219 443.656C503.238 420.802 517.219 412.117 540.161 417.601C550.209 422.35 556.14 430.188 557.955 441.114Z" fill="#F4ECD8"/>
<path fill-rule="evenodd" clip-rule="evenodd" d="M890.948 395.359C906.806 401.473 916.126 412.911 918.909 429.675C917.852 459.962 917.216 490.466 917.003 521.185C908.006 522.431 898.898 522.854 889.677 522.456C888.893 522.315 888.257 521.892 887.771 521.185C887.347 516.524 886.923 511.865 886.5 507.204C876.734 521.405 863.177 527.76 845.829 526.269C825.024 527.324 810.62 518.427 802.616 499.579C797.137 471.324 808.363 454.166 836.296 448.104C853.202 446.481 870.149 445.846 887.135 446.198C888.944 431.287 882.589 422.179 868.071 418.872C854.227 416.264 843.635 420.925 836.296 432.853C826.976 433.7 817.655 433.7 808.335 432.853C806.678 431.831 805.83 430.348 805.793 428.404C810.842 408.317 823.551 396.243 843.922 392.182C859.875 389.266 875.55 390.325 890.948 395.359Z" fill="#2A7F3C"/>
<path fill-rule="evenodd" clip-rule="evenodd" d="M746.058 453.823C744.786 474.946 744.362 497.823 744.787 522.456C734.721 522.856 724.765 522.433 714.919 521.185C714.284 479.245 714.071 437.303 714.284 395.359C714.425 394.575 714.848 393.939 715.555 393.453C724.875 392.605 734.196 392.605 743.516 393.453C744.151 394.088 744.787 394.724 745.422 395.359C745.846 401.714 746.27 408.069 746.693 414.424C755.823 396.402 770.016 389.624 789.271 394.088C790.71 403.344 790.922 412.666 789.906 422.049C789.271 422.685 788.635 423.32 788 423.956C764.416 421.127 750.435 431.082 746.058 453.823Z" fill="#2A7F3C"/>
<path fill-rule="evenodd" clip-rule="evenodd" d="M677.426 391.545C682.43 391.173 687.301 391.596 692.042 392.816C694.073 402.426 694.496 412.171 693.313 422.048C692.677 422.684 692.042 423.319 691.406 423.955C675.412 421.518 662.915 426.813 653.913 439.842C653.065 442.384 652.219 444.926 651.371 447.468C651.342 473 650.494 498.42 648.829 523.726C639.398 525.184 629.866 525.395 620.232 524.361C619.068 523.886 618.008 523.251 617.055 522.455C616.207 480.09 616.207 437.723 617.055 395.358C617.69 394.723 618.326 394.087 618.961 393.452C628.706 392.604 638.449 392.604 648.193 393.452C648.829 394.087 649.464 394.723 650.1 395.358C650.523 401.713 650.948 408.068 651.371 414.423C656.78 402.859 665.465 395.234 677.426 391.545Z" fill="#297E3B"/>
<path fill-rule="evenodd" clip-rule="evenodd" d="M713.013 395.359C713.013 395.782 713.013 396.207 713.013 396.63C711.956 437.509 711.32 478.603 711.107 519.914C710.259 478.395 710.259 436.877 711.107 395.359C711.983 393.785 712.619 393.785 713.013 395.359Z" fill="#FEFCF7"/>
<path fill-rule="evenodd" clip-rule="evenodd" d="M890.948 395.359C891.025 394.669 891.448 394.245 892.219 394.088C908.527 400.445 918.059 412.308 920.816 429.675C921.664 460.601 921.664 491.529 920.816 522.456C919.668 523.982 918.186 525.042 916.368 525.633C907.667 526.676 899.193 526.464 890.948 524.998C899.009 525.209 907.058 524.998 915.097 524.362C916.915 523.771 918.397 522.711 919.545 521.185C920.578 490.627 920.367 460.124 918.91 429.675C916.126 412.911 906.806 401.472 890.948 395.359Z" fill="#FAFAF5"/>
<path fill-rule="evenodd" clip-rule="evenodd" d="M557.955 441.114C559.104 442.015 559.527 443.286 559.226 444.927C538.668 445.347 518.332 444.922 498.219 443.656C518.6 444.484 538.511 443.636 557.955 441.114Z" fill="#AAC7A3"/>
<path fill-rule="evenodd" clip-rule="evenodd" d="M429.587 522.456C429.056 523.373 428.209 524.009 427.045 524.362C416.777 525.379 406.609 525.167 396.542 523.727C396.542 523.303 396.542 522.879 396.542 522.456C406.743 522.388 417.334 522.388 428.316 522.456C428.739 329.269 429.164 329.269 429.587 522.456Z" fill="#0D6519"/>
<path fill-rule="evenodd" clip-rule="evenodd" d="M918.909 429.675C920.367 460.124 920.578 490.627 919.545 521.185C918.397 522.711 916.915 523.771 915.097 524.362C907.058 524.998 899.009 525.209 890.948 524.998C890.525 524.15 890.1 523.304 889.677 522.456C898.898 522.854 908.006 522.43 917.003 521.185C917.217 490.466 917.852 459.962 918.909 429.675Z" fill="#397B38"/>
<path fill-rule="evenodd" clip-rule="evenodd" d="M859.174 469.075C868.259 467.814 877.579 467.391 887.135 467.804C887.519 471.056 887.095 474.023 885.864 476.701C885.864 474.159 885.864 471.617 885.864 469.075C876.968 469.075 868.071 469.075 859.174 469.075Z" fill="#A7C59F"/>
<path fill-rule="evenodd" clip-rule="evenodd" d="M470.258 377.565C457.779 378.829 445.069 379.252 432.129 378.836C432.551 426.926 432.127 474.8 430.858 522.456C430.858 474.159 430.858 425.862 430.858 377.565C443.991 377.565 457.125 377.565 470.258 377.565Z" fill="#FEFDFB"/>
<path fill-rule="evenodd" clip-rule="evenodd" d="M859.174 469.075C868.071 469.075 876.968 469.075 885.864 469.075C885.864 471.617 885.864 474.159 885.864 476.701C884.113 490.953 876.064 499.214 861.716 501.485C850.655 504.299 841.969 501.122 835.661 491.953C833.039 481.733 836.64 474.743 846.464 470.982C850.564 469.458 854.801 468.823 859.174 469.075Z" fill="#F4ECD8"/>
<path fill-rule="evenodd" clip-rule="evenodd" d="M713.013 395.358C713.436 395.358 713.861 395.358 714.284 395.358C714.072 437.303 714.284 479.245 714.919 521.184C724.766 522.432 734.721 522.856 744.787 522.455C744.363 497.823 744.786 474.945 746.058 453.823C746.481 477.139 746.058 500.441 744.787 523.726C735.106 525.166 725.362 525.378 715.555 524.362C714.919 523.726 714.284 523.091 713.648 522.455C713.013 480.516 712.801 438.574 713.013 396.629C713.013 396.206 713.013 395.782 713.013 395.358Z" fill="#146218"/>
<path fill-rule="evenodd" clip-rule="evenodd" d="M352.058 376.295C366.973 374.606 382.013 374.606 397.177 376.295C398.025 422.897 398.025 469.499 397.177 516.101C396.965 469.708 396.329 423.529 395.271 377.566C381.29 377.566 367.309 377.566 353.329 377.566C353.329 376.718 352.906 376.295 352.058 376.295Z" fill="#277932"/>
<path fill-rule="evenodd" clip-rule="evenodd" d="M353.329 377.565C367.309 377.565 381.29 377.565 395.271 377.565C394.849 426.078 395.272 474.375 396.542 522.456C396.542 522.879 396.542 523.303 396.542 523.727C396.148 525.3 395.512 525.3 394.635 523.727C394 475.431 393.787 427.134 394 378.836C379.49 379.258 365.933 378.835 353.329 377.565Z" fill="#FDFDF9"/>
<path fill-rule="evenodd" clip-rule="evenodd" d="M141.077 272.075C143.237 271.871 145.355 272.082 147.432 272.71C223.165 323.093 269.556 393.208 286.603 483.055C294.378 545.173 279.549 601.095 242.119 650.823C218.638 677.614 190.252 697.526 156.964 710.559C156.541 722.845 156.117 735.13 155.694 747.417C152.322 750.519 148.296 751.79 143.619 751.23C138.942 751.79 134.917 750.519 131.545 747.417C131.122 735.13 130.697 722.845 130.274 710.559C45.7497 672.693 2.32587 607.238 0 514.194C2.6309 453.762 21.9077 399.323 57.829 350.875C80.953 319.483 108.702 293.217 141.077 272.075Z" fill="#2A7F3D"/>
<path fill-rule="evenodd" clip-rule="evenodd" d="M157.6 402.984C155.939 403.814 154.245 404.662 152.516 405.526C151.245 448.307 150.822 491.097 151.245 533.894C149.555 490.89 149.555 447.677 151.245 404.255C152.939 403.408 154.635 402.561 156.329 401.713C157.1 401.871 157.524 402.294 157.6 402.984Z" fill="#FDFBF5"/>
<path fill-rule="evenodd" clip-rule="evenodd" d="M132.181 404.256C133.447 404.147 134.505 404.571 135.358 405.527C136.206 448.317 136.206 491.105 135.358 533.895C131.074 529.824 127.049 525.588 123.284 521.185C127.39 523.371 130.991 526.336 134.087 530.082C134.935 488.988 134.935 447.892 134.087 406.798C133.134 406.003 132.074 405.367 130.91 404.892C131.2 404.385 131.624 404.174 132.181 404.256Z" fill="#026011"/>
<path fill-rule="evenodd" clip-rule="evenodd" d="M165.226 395.359C163.107 398.324 160.565 400.866 157.6 402.985C157.524 402.294 157.1 401.871 156.329 401.714C154.635 402.561 152.939 403.408 151.245 404.256C149.555 447.677 149.555 490.89 151.245 533.894C152.844 534.55 154.115 533.704 155.058 531.352C163.694 524.203 172.168 516.79 180.477 509.11C187.989 502.452 194.556 495.038 200.177 486.868C201.228 481.732 201.016 476.649 199.542 471.617C185.254 462.629 181.652 450.343 188.739 434.759C198.418 422.481 210.069 420.152 223.69 427.768C234.496 437.564 236.827 449.215 230.681 462.72C227.135 467.329 222.686 470.717 217.335 472.888C216.767 482.853 214.014 492.173 209.074 500.849C192.097 516.557 175.574 532.655 159.506 549.146C153.279 559.349 149.043 570.365 146.797 582.191C145.949 583.039 145.103 583.885 144.255 584.733C140.883 575.469 137.493 566.149 134.087 556.772C131.86 552.74 129.318 548.927 126.461 545.333C110.362 530.081 94.2638 514.83 78.1645 499.578C73.2725 491.345 71.3661 482.448 72.4451 472.888C60.0163 469.766 53.6615 461.716 53.3806 448.739C55.1803 431.049 64.9248 422.788 82.6129 423.956C102.333 431.411 107.628 444.756 98.5 463.991C95.414 467.929 91.6011 470.894 87.0613 472.888C85.8704 479.119 86.7181 485.051 89.6032 490.681C100.691 501.14 111.918 511.308 123.284 521.185C127.048 525.587 131.074 529.823 135.358 533.894C136.206 491.105 136.206 448.316 135.358 405.527C134.505 404.571 133.446 404.146 132.181 404.256C118.2 393.293 115.869 380.161 125.19 364.856C141.507 351.591 155.488 353.709 167.132 371.21C170.022 379.581 169.387 387.631 165.226 395.359Z" fill="#F1EAD4"/>
<path fill-rule="evenodd" clip-rule="evenodd" d="M205.897 438.572C215.836 438.13 220.284 442.791 219.242 452.553C216.413 458.096 211.964 460.002 205.897 458.272C200.354 455.443 198.447 450.995 200.177 444.927C201.48 442.147 203.386 440.029 205.897 438.572Z" fill="#2B7D3A"/>
<path fill-rule="evenodd" clip-rule="evenodd" d="M74.9874 438.572C85.4042 438.609 89.4294 443.693 87.0616 453.824C81.13 460.602 75.1996 460.602 69.268 453.824C67.1188 447 69.0253 441.916 74.9874 438.572Z" fill="#277A36"/>
<path fill-rule="evenodd" clip-rule="evenodd" d="M165.226 395.358C166.529 395.863 166.741 396.709 165.861 397.9C162.73 402.092 158.706 405.058 153.787 406.797C153.364 427.556 152.939 448.316 152.516 469.075C152.517 490.276 153.364 511.034 155.058 531.352C154.115 533.703 152.844 534.55 151.245 533.894C150.822 491.097 151.245 448.307 152.516 405.526C154.245 404.662 155.939 403.814 157.6 402.984C160.565 400.865 163.107 398.324 165.226 395.358Z" fill="#07661A"/>
<path fill-rule="evenodd" clip-rule="evenodd" d="M141.077 371.21C151.494 371.247 155.519 376.331 153.152 386.462C147.28 393.227 141.349 393.227 135.358 386.462C133.209 379.638 135.115 374.554 141.077 371.21Z" fill="#287C39"/>
<path fill-rule="evenodd" clip-rule="evenodd" d="M425.774 729.623C404.681 731.888 385.193 727.44 367.309 716.278C354.823 706.765 348.256 694.267 347.609 678.785C348.509 677.665 349.569 676.818 350.787 676.243C360.117 676.032 369.437 676.243 378.748 676.878C384.248 688.956 393.569 696.159 406.709 698.485C420.098 700.894 432.172 698.14 442.932 690.223C449.649 680.199 448.59 671.091 439.755 662.897C420.897 656.381 401.833 650.45 382.561 645.104C357.753 634.259 347.797 615.407 352.693 588.546C358.072 569.186 370.571 557.112 390.187 552.323C409.616 548.795 428.681 550.066 447.38 556.136C463.813 563.564 473.133 576.273 475.342 594.265C475.527 596.85 474.681 598.969 472.8 600.62C463.903 601.468 455.006 601.468 446.109 600.62C436.577 583.729 422.173 577.374 402.896 581.556C389.817 584.216 384.521 592.054 387.009 605.068C390.904 611.791 396.623 616.239 404.167 618.414C418.571 622.65 432.976 626.887 447.38 631.123C474.463 640.996 485.267 660.273 479.79 688.952C476.282 703.465 468.021 714.269 455.006 721.362C445.384 725.139 435.639 727.893 425.774 729.623Z" fill="#297E3B"/>
<path fill-rule="evenodd" clip-rule="evenodd" d="M246.567 555.502C250.472 555.099 254.285 555.522 258.006 556.773C249.89 591.447 233.367 621.315 208.438 646.376C193.29 659.883 175.921 669.415 156.329 674.973C149.314 635.608 161.601 604.046 193.187 580.286C209.507 568.71 227.301 560.448 246.567 555.502Z" fill="#82B860"/>
<path fill-rule="evenodd" clip-rule="evenodd" d="M27.9614 537.708C64.864 538.626 94.7317 553.454 117.565 582.192C124.639 592.107 128.876 603.121 130.274 615.237C131.333 635.585 131.121 655.921 129.639 676.243C69.4687 649.595 35.5771 603.417 27.9614 537.708Z" fill="#82B860"/>
<path fill-rule="evenodd" clip-rule="evenodd" d="M726.993 723.27C727.386 698.215 726.963 673.22 725.722 648.282C719.553 628.887 706.844 622.745 687.593 629.853C682.729 633.463 678.917 637.911 676.155 643.199C675.179 644.168 674.543 645.439 674.248 647.011C673.825 672.431 673.401 697.85 672.977 723.27C669.59 724.507 669.379 725.355 672.342 725.811C663.248 727.279 653.928 727.492 644.381 726.447C643.745 725.811 643.11 725.176 642.474 724.541C641.839 684.295 641.626 644.048 641.839 603.799C642.867 602.567 644.138 601.508 645.652 600.621C654.548 599.773 663.445 599.773 672.342 600.621C672.977 601.257 673.613 601.892 674.248 602.528C674.672 606.764 675.096 611.001 675.519 615.237C693.38 596.058 714.351 592.033 738.432 603.163C749.448 610.797 756.438 621.177 759.403 634.302C760.251 664.382 760.251 694.461 759.403 724.541C758.768 725.176 758.132 725.811 757.497 726.447C748.6 727.295 739.703 727.295 730.806 726.447C729.293 725.56 728.022 724.501 726.993 723.27Z" fill="#297E3B"/>
<path fill-rule="evenodd" clip-rule="evenodd" d="M950.684 596.172C1002.33 593.044 1026.69 617.192 1023.76 668.617C994.189 671.139 964.321 671.986 934.161 671.159C935.311 691.586 946.115 702.601 966.571 704.204C978.673 703.346 988.205 698.051 995.168 688.317C1002.79 687.469 1010.42 687.469 1018.05 688.317C1021.7 690.434 1022.76 693.612 1021.22 697.849C1012.3 716.07 997.685 726.45 977.374 728.988C924.713 731.402 899.506 706.194 901.752 653.365C906.265 623.898 922.575 604.833 950.684 596.172Z" fill="#297E3B"/>
<path fill-rule="evenodd" clip-rule="evenodd" d="M935.432 647.01C954.697 648.276 974.185 648.701 993.896 648.281C974.19 649.968 954.278 649.968 934.161 648.281C934.318 647.51 934.742 647.087 935.432 647.01Z" fill="#5E9963"/>
<path fill-rule="evenodd" clip-rule="evenodd" d="M954.496 624.133C946.349 628.554 940.419 635.756 936.703 645.74C954.901 647.009 973.117 647.434 991.354 647.011C991.053 645.37 991.476 644.099 992.625 643.198C992.54 645.052 992.963 646.746 993.896 648.282C974.185 648.701 954.697 648.277 935.432 647.011C937.164 635.534 943.519 627.908 954.496 624.133Z" fill="#FAFAF5"/>
<path fill-rule="evenodd" clip-rule="evenodd" d="M954.496 624.133C966.621 620.592 977.425 623.134 986.906 631.759C989.496 635.245 991.403 639.058 992.625 643.198C991.476 644.099 991.053 645.37 991.354 647.011C973.117 647.434 954.901 647.009 936.703 645.74C940.419 635.756 946.35 628.554 954.496 624.133Z" fill="#F3EBD6"/>
<path fill-rule="evenodd" clip-rule="evenodd" d="M641.838 603.798C641.626 644.047 641.838 684.295 642.474 724.54C643.109 725.175 643.745 725.811 644.38 726.446C653.928 727.491 663.248 727.279 672.342 725.811C673.126 725.67 673.761 725.246 674.248 724.54C674.504 698.235 675.139 671.967 676.155 645.74C677.251 644.516 678.099 644.516 678.697 645.74C677.652 671.528 677.016 697.37 676.79 723.269C676.199 725.088 675.139 726.569 673.613 727.717C663.445 728.565 653.277 728.565 643.109 727.717C642.474 727.082 641.838 726.446 641.203 725.811C640.149 684.202 640.362 643.531 641.838 603.798Z" fill="#F1F3E8"/>
<path fill-rule="evenodd" clip-rule="evenodd" d="M549.058 596.172C575.361 593.13 596.332 602.026 611.971 622.863C619.642 637.223 622.184 652.475 619.597 668.618C590.444 671.139 561.001 671.986 531.264 671.159C531.677 688.302 540.151 699.105 556.684 703.569C571.61 705.38 583.472 700.296 592.271 688.318C599.897 687.47 607.522 687.47 615.148 688.318C616.926 689.667 618.197 691.361 618.961 693.401C611.221 714.676 595.969 726.539 573.206 728.988C518.845 730.543 494.061 704.064 498.855 649.553C504.577 621.171 521.311 603.377 549.058 596.172Z" fill="#2A7E3B"/>
<path fill-rule="evenodd" clip-rule="evenodd" d="M552.871 622.862C565.886 620.757 576.689 624.57 585.281 634.301C587.919 638.613 589.401 643.274 589.729 648.282C570.236 648.494 550.748 648.282 531.264 647.646C534.259 635.554 541.46 627.293 552.871 622.862Z" fill="#F4EDD9"/>
<path fill-rule="evenodd" clip-rule="evenodd" d="M725.722 648.281C726.963 673.219 727.386 698.214 726.993 723.268C727.076 723.825 726.865 724.25 726.358 724.539C725.935 723.692 725.51 722.845 725.087 721.997C724.033 697.208 724.245 672.636 725.722 648.281Z" fill="#EAEEE0"/>
<path fill-rule="evenodd" clip-rule="evenodd" d="M676.154 643.198C676.154 644.045 676.154 644.892 676.154 645.74C675.139 671.967 674.503 698.234 674.248 724.54C673.761 725.246 673.126 725.67 672.342 725.811C669.379 725.354 669.59 724.507 672.977 723.269C673.4 697.849 673.825 672.43 674.248 647.011C674.543 645.438 675.178 644.168 676.154 643.198Z" fill="#015D0F"/>
<path fill-rule="evenodd" clip-rule="evenodd" d="M813.419 597.442C832.572 594.911 850.365 598.513 866.8 608.246C889.456 631.062 885.219 640.807 854.09 637.478C844.8 623.083 832.09 618.847 815.961 624.768C808.989 631.226 809.412 637.158 817.232 642.562C832.47 647.219 847.721 651.879 862.987 656.542C883.659 666.423 890.226 682.31 882.687 704.204C878.662 713.313 872.096 719.879 862.987 723.904C838.792 732.94 815.491 731.246 793.084 718.82C784.417 712.503 779.333 704.03 777.832 693.401C777.755 691.226 778.602 689.532 780.374 688.317C789.271 687.469 798.168 687.469 807.065 688.317C816.359 703.983 829.492 708.219 846.465 701.026C855.244 693.665 854.82 686.886 845.194 680.691C828.742 677.213 812.644 672.554 796.897 666.71C781.331 657.325 775.612 643.557 779.739 625.404C782.304 617.084 787.176 610.517 794.355 605.704C800.541 602.178 806.895 599.424 813.419 597.442Z" fill="#297D3B"/>
<path fill-rule="evenodd" clip-rule="evenodd" d="M350.787 676.243C349.569 676.818 348.509 677.665 347.609 678.785C348.256 694.267 354.823 706.765 367.309 716.278C385.193 727.44 404.681 731.888 425.774 729.623C418.632 731.085 408.888 731.296 396.542 730.259C373.465 726.466 357.154 713.969 347.609 692.765C345.787 687.801 345.364 682.717 346.338 677.514C347.661 675.212 349.143 674.787 350.787 676.243Z" fill="#F0F2E7"/>
</g>
<defs>
<clipPath id="clip0_4083_2564">
<rect width="1024" height="1024" fill="white"/>
</clipPath>
</defs>
</svg>
